<svg width="174" height="174" viewBox="0 0 174 174" fill="none" xmlns="http://www.w3.org/2000/svg">
<path d="M0 0V8.28571V16.5714V24.8571V33.1429V41.4286V49.7143V58H8.28571H16.5714H24.8571H33.1429H41.4286H49.7143H58V49.7143V41.4286V33.1429V24.8571V16.5714V8.28571V0H49.7143H41.4286H33.1429H24.8571H16.5714H8.28571H0ZM66.2857 0V8.28571V16.5714H74.5714V8.28571H82.8571V0H74.5714H66.2857ZM82.8571 8.28571V16.5714H91.1429V8.28571H82.8571ZM91.1429 16.5714V24.8571H99.4286H107.714V16.5714V8.28571V0H99.4286V8.28571V16.5714H91.1429ZM91.1429 24.8571H82.8571H74.5714H66.2857V33.1429H74.5714H82.8571V41.4286H74.5714V49.7143H82.8571V58H91.1429V49.7143H99.4286V58H91.1429V66.2857H82.8571V74.5714H91.1429H99.4286V82.8571H107.714V74.5714V66.2857V58V49.7143V41.4286H99.4286V33.1429H91.1429V24.8571ZM99.4286 82.8571H91.1429V91.1429H82.8571V99.4286V107.714H91.1429V116V124.286H82.8571H74.5714V116H82.8571V107.714H74.5714V99.4286V91.1429H66.2857V82.8571H74.5714V91.1429H82.8571V82.8571V74.5714H74.5714H66.2857V66.2857H58H49.7143H41.4286V74.5714H33.1429V82.8571H24.8571V74.5714H33.1429V66.2857H24.8571H16.5714V74.5714H8.28571V82.8571V91.1429V99.4286H16.5714V91.1429H24.8571H33.1429H41.4286V82.8571H49.7143V74.5714H58V82.8571H49.7143V91.1429H58V99.4286H49.7143V107.714H58H66.2857V116V124.286V132.571H74.5714V140.857H82.8571H91.1429H99.4286V149.143H91.1429H82.8571H74.5714V140.857H66.2857V149.143V157.429H74.5714V165.714H66.2857V174H74.5714H82.8571V165.714H91.1429V174H99.4286H107.714H116H124.286V165.714H132.571V174H140.857H149.143H157.429V165.714H149.143H140.857V157.429H132.571V149.143H124.286V157.429H116H107.714V165.714H99.4286V157.429H107.714V149.143V140.857V132.571H116V124.286H107.714H99.4286V116H107.714V107.714V99.4286V91.1429H99.4286V82.8571ZM124.286 149.143V140.857H116V149.143H124.286ZM140.857 157.429H149.143H157.429V149.143H149.143H140.857V157.429ZM157.429 149.143H165.714V140.857V132.571V124.286V116H157.429H149.143H140.857V107.714H132.571V116H124.286V124.286V132.571H132.571V124.286H140.857V132.571V140.857H149.143H157.429V149.143ZM132.571 107.714V99.4286H124.286H116V107.714H124.286H132.571ZM140.857 107.714H149.143V99.4286V91.1429V82.8571H157.429V91.1429H165.714V99.4286H174V91.1429V82.8571H165.714V74.5714H174V66.2857H165.714H157.429V74.5714H149.143V66.2857H140.857V74.5714H132.571V82.8571H140.857V91.1429V99.4286V107.714ZM132.571 82.8571H124.286V91.1429H132.571V82.8571ZM165.714 99.4286H157.429V107.714H165.714V99.4286ZM49.7143 99.4286V91.1429H41.4286V99.4286H49.7143ZM41.4286 99.4286H33.1429H24.8571H16.5714V107.714H24.8571H33.1429H41.4286V99.4286ZM8.28571 99.4286H0V107.714H8.28571V99.4286ZM8.28571 74.5714V66.2857H0V74.5714H8.28571ZM66.2857 66.2857H74.5714V58V49.7143H66.2857V58V66.2857ZM116 0V8.28571V16.5714V24.8571V33.1429V41.4286V49.7143V58H124.286H132.571H140.857H149.143H157.429H165.714H174V49.7143V41.4286V33.1429V24.8571V16.5714V8.28571V0H165.714H157.429H149.143H140.857H132.571H124.286H116ZM8.28571 8.28571H16.5714H24.8571H33.1429H41.4286H49.7143V16.5714V24.8571V33.1429V41.4286V49.7143H41.4286H33.1429H24.8571H16.5714H8.28571V41.4286V33.1429V24.8571V16.5714V8.28571ZM124.286 8.28571H132.571H140.857H149.143H157.429H165.714V16.5714V24.8571V33.1429V41.4286V49.7143H157.429H149.143H140.857H132.571H124.286V41.4286V33.1429V24.8571V16.5714V8.28571ZM16.5714 16.5714V24.8571V33.1429V41.4286H24.8571H33.1429H41.4286V33.1429V24.8571V16.5714H33.1429H24.8571H16.5714ZM132.571 16.5714V24.8571V33.1429V41.4286H140.857H149.143H157.429V33.1429V24.8571V16.5714H149.143H140.857H132.571ZM116 66.2857V74.5714H124.286V66.2857H116ZM0 116V124.286V132.571V140.857V149.143V157.429V165.714V174H8.28571H16.5714H24.8571H33.1429H41.4286H49.7143H58V165.714V157.429V149.143V140.857V132.571V124.286V116H49.7143H41.4286H33.1429H24.8571H16.5714H8.28571H0ZM8.28571 124.286H16.5714H24.8571H33.1429H41.4286H49.7143V132.571V140.857V149.143V157.429V165.714H41.4286H33.1429H24.8571H16.5714H8.28571V157.429V149.143V140.857V132.571V124.286ZM16.5714 132.571V140.857V149.143V157.429H24.8571H33.1429H41.4286V149.143V140.857V132.571H33.1429H24.8571H16.5714ZM165.714 157.429V165.714H174V157.429H165.714Z" fill="black"/>
</svg>
