<svg width="24" height="24" viewBox="0 0 24 24" fill="none" xmlns="http://www.w3.org/2000/svg">
<path fill-rule="evenodd" clip-rule="evenodd" d="M13.4618 4.04707C14.6652 4.8695 15.8624 5.85967 17.0015 6.99881C18.1407 8.13797 19.1309 9.33518 19.9533 10.5386C20.6544 9.1612 21.0758 7.85689 21.2064 6.72533C21.371 5.29824 21.0678 4.24382 20.4122 3.58821C19.7566 2.93259 18.7022 2.62936 17.2751 2.79402C16.1435 2.92458 14.8392 3.34601 13.4618 4.04707ZM20.8687 12.0004C21.8741 10.2352 22.5142 8.47697 22.6965 6.89726C22.8915 5.20688 22.5677 3.62239 21.4729 2.52755C20.378 1.43271 18.7935 1.10887 17.1032 1.3039C15.5235 1.48617 13.7652 2.12628 12.0001 3.13166C10.235 2.12634 8.47679 1.48627 6.89713 1.30403C5.2068 1.10902 3.62236 1.43287 2.52754 2.52769C1.43272 3.62252 1.10888 5.20698 1.3039 6.89733C1.48615 8.47702 2.12623 10.2352 3.13159 12.0004C2.12632 13.7654 1.48629 15.5236 1.30408 17.1032C1.10909 18.7935 1.43295 20.3779 2.52774 21.4727C3.62254 22.5675 5.20694 22.8914 6.89723 22.6964C8.47686 22.5142 10.235 21.8741 12.0001 20.8688C13.7652 21.8742 15.5234 22.5143 17.1031 22.6965C18.7934 22.8915 20.3778 22.5677 21.4727 21.4728C22.5675 20.378 22.8913 18.7936 22.6963 17.1033C22.5141 15.5236 21.874 13.7655 20.8687 12.0004ZM19.1195 12.0004C18.2825 10.6752 17.2143 9.33286 15.9409 8.05947C14.6675 6.78611 13.3252 5.71785 12.0001 4.88093C10.6751 5.71783 9.3328 6.78604 8.05951 8.05933C6.78609 9.33276 5.71778 10.6752 4.88085 12.0004C5.71776 13.3254 6.78599 14.6677 8.05932 15.9411C9.33267 17.2144 10.675 18.2827 12.0001 19.1196C13.3252 18.2827 14.6677 17.2143 15.9411 15.9409C17.2144 14.6676 18.2826 13.3254 19.1195 12.0004ZM13.4618 19.9534C14.6653 19.131 15.8625 18.1408 17.0017 17.0016C18.1408 15.8625 19.1309 14.6654 19.9533 13.4621C20.6543 14.8395 21.0757 16.1437 21.2062 17.2752C21.3708 18.7022 21.0676 19.7566 20.412 20.4122C19.7564 21.0678 18.702 21.371 17.275 21.2064C16.1435 21.0758 14.8392 20.6545 13.4618 19.9534ZM10.5383 19.9534C9.33492 19.131 8.13777 18.1408 6.99866 17.0017C5.85956 15.8626 4.86943 14.6655 4.04702 13.4621C3.34607 14.8394 2.92471 16.1436 2.79419 17.2751C2.62958 18.7021 2.93281 19.7565 3.5884 20.4121C4.24399 21.0676 5.29835 21.3709 6.72534 21.2063C7.85681 21.0757 9.161 20.6544 10.5383 19.9534ZM4.04699 10.5386C4.86944 9.33512 5.85966 8.13787 6.99885 6.99867C8.13792 5.85961 9.33502 4.86949 10.5384 4.04709C9.16098 3.34608 7.85673 2.92469 6.72522 2.79415C5.29819 2.62951 4.2438 2.93274 3.58821 3.58835C2.9326 4.24396 2.62937 5.29836 2.79401 6.72541C2.92456 7.85695 3.34596 9.16122 4.04699 10.5386ZM12.0002 10.2502C11.0337 10.2502 10.2502 11.0337 10.2502 12.0002C10.2502 12.9667 11.0337 13.7502 12.0002 13.7502C12.9667 13.7502 13.7502 12.9667 13.7502 12.0002C13.7502 11.0337 12.9667 10.2502 12.0002 10.2502ZM8.7502 12.0002C8.7502 10.2053 10.2053 8.7502 12.0002 8.7502C13.7951 8.7502 15.2502 10.2053 15.2502 12.0002C15.2502 13.7951 13.7951 15.2502 12.0002 15.2502C10.2053 15.2502 8.7502 13.7951 8.7502 12.0002Z" fill="#1C274C"/>
</svg>
