<svg width="24" height="24" viewBox="0 0 24 24" fill="none" xmlns="http://www.w3.org/2000/svg">
<path fill-rule="evenodd" clip-rule="evenodd" d="M11.9098 2.77415L13.7426 4.07569C14.2829 4.4593 14.7548 4.79434 15.0843 5.10946C15.435 5.44493 15.7501 5.87398 15.7501 6.45883C15.7501 7.04368 15.435 7.47272 15.0843 7.8082C14.7548 8.12332 14.2829 8.45836 13.7426 8.84197L9.29541 12.0001L13.7426 15.1582C14.2829 15.5418 14.7548 15.8769 15.0843 16.192C15.435 16.5274 15.7501 16.9565 15.7501 17.5413C15.7501 18.1262 15.435 18.5552 15.0843 18.8907C14.7548 19.2058 14.2829 19.5409 13.7426 19.9245L11.9099 21.226C11.1804 21.7441 10.5645 22.1815 10.0536 22.4421C9.53336 22.7075 8.89829 22.9071 8.26311 22.5822C7.62612 22.2563 7.41919 21.6232 7.33374 21.0463C7.24998 20.4808 7.25002 19.7277 7.25006 18.837L7.25006 13.4406L3.43016 16.1145C3.09082 16.352 2.62318 16.2695 2.38564 15.9302C2.1481 15.5908 2.23063 15.1232 2.56997 14.8857L6.69222 12.0001L2.56997 9.11451C2.23063 8.87698 2.1481 8.40933 2.38564 8.06999C2.62318 7.73065 3.09082 7.64813 3.43016 7.88566L7.25006 10.5596V5.22466C7.25006 5.20408 7.25006 5.18358 7.25006 5.16315C7.25002 4.27246 7.24998 3.51937 7.33374 2.95389C7.41919 2.37699 7.62612 1.74391 8.26311 1.41801C8.89829 1.09303 9.53336 1.29272 10.0536 1.55807C10.5644 1.81866 11.1804 2.25608 11.9098 2.77415ZM8.75006 13.4526V18.7755C8.75006 19.7444 8.75207 20.3844 8.81755 20.8265C8.84924 21.0405 8.88915 21.1531 8.9187 21.2092C8.93168 21.2339 8.94094 21.2434 8.94094 21.2434C8.94094 21.2434 8.9414 21.2443 8.94632 21.2468C8.95081 21.2491 8.95303 21.2494 8.95303 21.2494C8.95504 21.2497 8.96803 21.2515 8.99661 21.2476C9.06133 21.2386 9.17796 21.2049 9.372 21.1059C9.77271 20.9015 10.2984 20.5306 11.0911 19.9677L12.8291 18.7335C13.4278 18.3083 13.8072 18.0365 14.0475 17.8067C14.1612 17.698 14.212 17.6274 14.2343 17.5867C14.2503 17.5578 14.2501 17.5479 14.2501 17.5423V17.5404C14.2501 17.5348 14.2503 17.5249 14.2343 17.4959C14.212 17.4553 14.1612 17.3847 14.0475 17.276C13.8072 17.0462 13.4278 16.7744 12.8291 16.3492L8.75006 13.4526ZM8.75006 10.5476V5.22466C8.75006 4.25579 8.75207 3.61576 8.81755 3.17367C8.84924 2.95971 8.88915 2.84705 8.9187 2.79096C8.93168 2.76632 8.94094 2.75681 8.94094 2.75681C8.94094 2.75681 8.9414 2.7559 8.94632 2.75338C8.95081 2.75108 8.95303 2.75078 8.95303 2.75078C8.95503 2.75048 8.96803 2.74867 8.99661 2.75261C9.06133 2.76153 9.17796 2.7953 9.372 2.89428C9.77271 3.09867 10.2984 3.46957 11.0911 4.03251L12.8291 5.26669C13.4278 5.69187 13.8072 5.96364 14.0475 6.19347C14.1612 6.30221 14.212 6.37282 14.2343 6.41343C14.2503 6.4424 14.2501 6.4523 14.2501 6.45784V6.45982C14.2501 6.46536 14.2503 6.47526 14.2343 6.50423C14.212 6.54484 14.1612 6.61544 14.0475 6.72419C13.8072 6.95402 13.4278 7.22579 12.8291 7.65097L8.75006 10.5476ZM18.4828 4.45698C18.7828 4.17132 19.2575 4.1829 19.5432 4.48285L19.0249 4.97641C19.5432 4.48285 19.5432 4.48285 19.5432 4.48285L19.5444 4.48418L19.5459 4.48571L19.5493 4.48938L19.5583 4.49911C19.5653 4.50667 19.5741 4.51637 19.5845 4.52824C19.6055 4.55197 19.6333 4.58437 19.667 4.62561C19.7343 4.70809 19.8251 4.82596 19.9311 4.98063C20.1433 5.29007 20.4166 5.74646 20.6867 6.36079C21.2279 7.59201 21.7501 9.44466 21.7501 12.0001C21.7501 14.5555 21.2279 16.4082 20.6867 17.6394C20.4166 18.2537 20.1433 18.7101 19.9311 19.0195C19.8251 19.1742 19.7343 19.2921 19.667 19.3746C19.6333 19.4158 19.6055 19.4482 19.5845 19.4719C19.5741 19.4838 19.5653 19.4935 19.5583 19.5011L19.5493 19.5108L19.5459 19.5145L19.5444 19.516C19.5444 19.516 19.5432 19.5173 19.0249 19.0238L19.5432 19.5173C19.2575 19.8173 18.7828 19.8289 18.4828 19.5432C18.1841 19.2587 18.1714 18.7868 18.4534 18.4866L18.4557 18.4842L18.455 18.4849L18.4534 18.4866L18.4605 18.4787C18.4688 18.4693 18.484 18.4518 18.505 18.426C18.5471 18.3745 18.6126 18.29 18.694 18.1713C18.8568 17.9338 19.0835 17.559 19.3135 17.0358C19.7723 15.992 20.2501 14.3447 20.2501 12.0001C20.2501 9.65551 19.7723 8.00817 19.3135 6.96439C19.0835 6.44121 18.8568 6.06636 18.694 5.82892C18.6126 5.71015 18.5471 5.62568 18.505 5.57417C18.484 5.54842 18.4688 5.53092 18.4605 5.52149L18.4537 5.51387L18.455 5.51523L18.4559 5.51618M18.4828 4.45698C18.1841 4.74146 18.1717 5.21373 18.4537 5.51387L18.4828 4.45698ZM16.6508 7.3364C17.0173 7.14348 17.4708 7.28423 17.6638 7.65078L17.0001 8.00009C17.6638 7.65078 17.6638 7.65078 17.6638 7.65078L17.6646 7.65231L17.6657 7.65455L17.6691 7.66111L17.6801 7.68246C17.6891 7.70029 17.7016 7.72529 17.7171 7.75701C17.748 7.82044 17.7909 7.91094 17.8417 8.02517C17.9431 8.25329 18.0768 8.57789 18.2104 8.97181C18.4752 9.75308 18.7501 10.8389 18.7501 12.0001C18.7501 13.1613 18.4752 14.2471 18.2104 15.0284C18.0768 15.4223 17.9431 15.7469 17.8417 15.975C17.7909 16.0892 17.748 16.1797 17.7171 16.2432C17.7016 16.2749 17.6891 16.2999 17.6801 16.3177L17.6691 16.3391L17.6657 16.3456L17.6646 16.3479L17.6639 16.3491C17.6639 16.3491 17.6638 16.3494 17.0001 16.0001L17.6639 16.3491C17.471 16.7156 17.0173 16.8567 16.6508 16.6638C16.2845 16.471 16.1437 16.0181 16.3359 15.6518M16.3364 15.6508L16.3425 15.6388C16.3481 15.6277 16.3571 15.6099 16.369 15.5855C16.3927 15.5368 16.428 15.4625 16.471 15.3658C16.5571 15.172 16.6733 14.8904 16.7898 14.5468C17.0249 13.8531 17.2501 12.9389 17.2501 12.0001C17.2501 11.0613 17.0249 10.1471 16.7898 9.45337C16.6733 9.10979 16.5571 8.82814 16.471 8.63438C16.428 8.53767 16.3927 8.46333 16.369 8.41465C16.3571 8.39032 16.3481 8.37244 16.3425 8.36141L16.3367 8.35009L16.3362 8.34912C16.1435 7.98263 16.2843 7.52927 16.6508 7.3364" fill="#1C274C"/>
</svg>
