<svg width="24" height="24" viewBox="0 0 24 24" fill="none" xmlns="http://www.w3.org/2000/svg">
<path fill-rule="evenodd" clip-rule="evenodd" d="M14.9098 2.77415L16.7426 4.07569C17.2829 4.4593 17.7548 4.79434 18.0843 5.10946C18.435 5.44493 18.7501 5.87398 18.7501 6.45883C18.7501 7.04368 18.435 7.47272 18.0843 7.8082C17.7548 8.12332 17.2829 8.45836 16.7426 8.84197L12.2954 12.0001L16.7426 15.1582C17.2829 15.5418 17.7548 15.8769 18.0843 16.192C18.435 16.5274 18.7501 16.9565 18.7501 17.5413C18.7501 18.1262 18.435 18.5552 18.0843 18.8907C17.7548 19.2058 17.2829 19.5409 16.7426 19.9245L14.9099 21.226C14.1804 21.7441 13.5645 22.1815 13.0536 22.4421C12.5334 22.7075 11.8983 22.9071 11.2631 22.5822C10.6261 22.2563 10.4192 21.6232 10.3337 21.0463C10.25 20.4808 10.25 19.7277 10.2501 18.837L10.2501 13.4406L6.43016 16.1145C6.09082 16.352 5.62318 16.2695 5.38564 15.9302C5.1481 15.5908 5.23063 15.1232 5.56997 14.8857L9.69222 12.0001L5.56997 9.11451C5.23063 8.87698 5.1481 8.40933 5.38564 8.06999C5.62318 7.73065 6.09082 7.64813 6.43016 7.88566L10.2501 10.5596V5.22466C10.2501 5.20408 10.2501 5.18358 10.2501 5.16315C10.25 4.27246 10.25 3.51937 10.3337 2.95389C10.4192 2.37699 10.6261 1.74391 11.2631 1.41801C11.8983 1.09303 12.5334 1.29272 13.0536 1.55807C13.5644 1.81866 14.1804 2.25608 14.9098 2.77415ZM11.7501 13.4526V18.7755C11.7501 19.7444 11.7521 20.3844 11.8176 20.8265C11.8492 21.0405 11.8892 21.1531 11.9187 21.2092C11.9317 21.2339 11.94 21.2424 11.9409 21.2434C11.9411 21.2436 11.9414 21.2443 11.9463 21.2468C11.9508 21.2491 11.9521 21.2493 11.953 21.2494C11.955 21.2497 11.968 21.2515 11.9966 21.2476C12.0613 21.2386 12.178 21.2049 12.372 21.1059C12.7727 20.9015 13.2984 20.5306 14.0911 19.9677L15.8291 18.7335C16.4278 18.3083 16.8072 18.0365 17.0475 17.8067C17.1612 17.698 17.212 17.6274 17.2343 17.5867C17.2503 17.5578 17.2501 17.5479 17.2501 17.5423C17.2501 17.542 17.2501 17.5426 17.2501 17.5423C17.2501 17.542 17.2501 17.5407 17.2501 17.5404C17.2501 17.5348 17.2503 17.5249 17.2343 17.4959C17.212 17.4553 17.1612 17.3847 17.0475 17.276C16.8072 17.0462 16.4278 16.7744 15.8291 16.3492L11.7501 13.4526ZM11.7501 10.5476V5.22466C11.7501 4.25579 11.7521 3.61576 11.8176 3.17367C11.8492 2.95971 11.8892 2.84705 11.9187 2.79096C11.9317 2.76632 11.94 2.75773 11.9409 2.75681C11.9411 2.7566 11.9414 2.7559 11.9463 2.75338C11.9508 2.75108 11.9521 2.75091 11.953 2.75078C11.9529 2.7508 11.9531 2.75077 11.953 2.75078C11.955 2.75048 11.968 2.74867 11.9966 2.75261C12.0613 2.76153 12.178 2.7953 12.372 2.89428C12.7727 3.09867 13.2984 3.46957 14.0911 4.03251L15.8291 5.26669C16.4278 5.69187 16.8072 5.96364 17.0475 6.19347C17.1612 6.30221 17.212 6.37282 17.2343 6.41343C17.2503 6.4424 17.2501 6.4523 17.2501 6.45784C17.2501 6.45819 17.2501 6.45752 17.2501 6.45784C17.2501 6.45815 17.2501 6.45947 17.2501 6.45982C17.2501 6.46536 17.2503 6.47526 17.2343 6.50423C17.212 6.54484 17.1612 6.61544 17.0475 6.72419C16.8072 6.95402 16.4278 7.22579 15.8291 7.65097L11.7501 10.5476Z" fill="#1C274C"/>
</svg>
