<svg width="24" height="24" viewBox="0 0 24 24" fill="none" xmlns="http://www.w3.org/2000/svg">
<path fill-rule="evenodd" clip-rule="evenodd" d="M21.0367 2.88398C21.3296 3.17687 21.3296 3.65174 21.0367 3.94464L19.404 5.57726C20.6352 7.27255 20.6068 9.59817 19.319 11.2644L19.3229 11.2965L19.291 11.3003C19.291 11.3004 19.2911 11.3002 19.291 11.3003C19.3231 11.2965 19.3229 11.2964 19.3229 11.2965L19.3234 11.301L19.3243 11.3091L19.3273 11.3363C19.3296 11.3591 19.3328 11.3913 19.3365 11.4323C19.3438 11.5144 19.353 11.6319 19.3611 11.7807C19.3774 12.0782 19.3898 12.5016 19.3756 13.0167C19.3471 14.0444 19.2121 15.4512 18.7816 16.9571C18.4906 17.975 18.0376 18.9821 17.5726 19.8627C16.4115 22.0618 13.7398 22.7186 11.6965 21.6757L11.6716 21.6629L10.5514 20.9814C7.44145 19.0895 4.8309 16.479 2.93902 13.3691L2.25761 12.2489L2.24489 12.224C1.20189 10.1807 1.85869 7.50904 4.0578 6.34792C4.93847 5.88293 5.94556 5.42997 6.96344 5.13898C8.46937 4.70847 9.8761 4.57343 10.9038 4.54497C11.419 4.5307 11.8424 4.54313 12.1398 4.55943C12.2886 4.56759 12.4062 4.57673 12.4882 4.58404C12.5293 4.58769 12.5615 4.59089 12.5843 4.59328L12.6114 4.59622L12.6196 4.59715L12.6223 4.59746L12.6233 4.59758C12.6233 4.59759 12.6238 4.59764 12.62 4.63008C12.6199 4.63013 12.6201 4.63003 12.62 4.63008L12.6233 4.59758L12.6565 4.60156C14.3228 3.31392 16.6482 3.28555 18.3434 4.5166L19.976 2.88398C20.2689 2.59108 20.7438 2.59108 21.0367 2.88398ZM12.1978 6.06581C12.1559 6.06293 12.1092 6.06 12.0577 6.05718C11.7959 6.04283 11.4141 6.03141 10.9454 6.0444C10.0053 6.07043 8.72929 6.19426 7.37573 6.58121C6.49186 6.83389 5.58509 7.23776 4.75816 7.67438C3.35154 8.41707 2.88512 10.1486 3.56901 11.5185L4.22052 12.5895C5.98767 15.4944 8.42609 17.9328 11.331 19.6999L12.402 20.3515C13.7719 21.0354 15.5035 20.569 16.2462 19.1624C16.6828 18.3354 17.0867 17.4287 17.3393 16.5448C17.7263 15.1912 17.8501 13.9153 17.8761 12.9752C17.8891 12.5064 17.8777 12.1246 17.8634 11.8628C17.8605 11.8114 17.8576 11.7646 17.8547 11.7228L12.1978 6.06581ZM18.3236 10.0703L13.8504 5.59715C15.1034 4.82305 16.768 4.97932 17.8547 6.06596C18.9413 7.15262 19.0977 8.81738 18.3236 10.0703Z" fill="#1C274C"/>
</svg>
