<svg width="24" height="24" viewBox="0 0 24 24" fill="none" xmlns="http://www.w3.org/2000/svg">
<path fill-rule="evenodd" clip-rule="evenodd" d="M6.97723 1.32685C7.31445 1.56738 7.39282 2.03575 7.15229 2.37296L6.76622 2.91421C7.39204 3.38848 7.53075 4.27773 7.07176 4.9212L6.66115 5.49687C6.42061 5.83409 5.95225 5.91246 5.61503 5.67193C5.27781 5.43139 5.19944 4.96303 5.43997 4.62581L5.82604 4.08456C5.20022 3.6103 5.06151 2.72105 5.5205 2.07758L5.93111 1.50191C6.17165 1.16469 6.64001 1.08631 6.97723 1.32685ZM10.9772 1.32685C11.3144 1.56738 11.3928 2.03575 11.1523 2.37296L10.7662 2.91421C11.392 3.38848 11.5307 4.27773 11.0718 4.9212L10.6611 5.49687C10.4206 5.83409 9.95225 5.91246 9.61503 5.67193C9.27781 5.43139 9.19944 4.96303 9.43997 4.62581L9.82604 4.08456C9.20022 3.6103 9.06151 2.72105 9.5205 2.07758L9.93112 1.50191C10.1716 1.16469 10.64 1.08631 10.9772 1.32685ZM14.9772 1.32685C15.3144 1.56738 15.3928 2.03575 15.1523 2.37296L14.7662 2.91421C15.392 3.38848 15.5307 4.27773 15.0718 4.9212L14.6611 5.49687C14.4206 5.83409 13.9522 5.91246 13.615 5.67193C13.2778 5.43139 13.1994 4.96303 13.44 4.62581L13.826 4.08456C13.2002 3.6103 13.0615 2.72104 13.5205 2.07758L13.9311 1.50191C14.1716 1.16469 14.64 1.08631 14.9772 1.32685ZM7.22137 6.25003H12.7784C13.7341 6.25 14.5285 6.24997 15.1549 6.33625C15.8145 6.4271 16.4082 6.62741 16.8703 7.12127C17.1802 7.45255 17.3544 7.83418 17.4496 8.25003H17.9999C20.6232 8.25003 22.7499 10.3767 22.7499 13C22.7499 15.6234 20.6232 17.75 17.9999 17.75H17.0304C17.0205 17.8757 17.0104 17.9983 16.9999 18.1179V18.75H16.9361C16.8988 19.0697 16.8553 19.3639 16.8016 19.6336C16.6332 20.4789 16.3467 21.185 15.7552 21.7385C15.1636 22.2919 14.44 22.5307 13.5854 22.6425C12.7633 22.7501 11.7249 22.75 10.4393 22.75H9.56045C8.27486 22.75 7.23642 22.7501 6.41438 22.6425C5.55973 22.5307 4.83618 22.2919 4.24459 21.7385C3.65299 21.185 3.36657 20.4789 3.19818 19.6336C3.0362 18.8205 2.96714 17.7844 2.88165 16.5017L2.53234 11.2621C2.46873 10.3084 2.41587 9.5158 2.46029 8.8851C2.50707 8.2209 2.66744 7.61513 3.12947 7.12127C3.5915 6.62741 4.18526 6.4271 4.84487 6.33625C5.47122 6.24997 6.26561 6.25 7.22137 6.25003ZM17.1349 16.25H17.9999C19.7948 16.25 21.2499 14.795 21.2499 13C21.2499 11.2051 19.7948 9.75003 17.9999 9.75003H17.5508C17.5383 10.1985 17.5047 10.7026 17.4674 11.2621L17.1349 16.25ZM15.5634 17.25H4.43637C4.4164 16.9717 4.39635 16.6722 4.37482 16.3493L4.03261 11.2162C3.96452 10.1947 3.92028 9.50594 3.95658 8.99048C3.99136 8.49666 4.09407 8.28582 4.22484 8.14605C4.3556 8.00627 4.55914 7.88977 5.04956 7.82222C5.56146 7.7517 6.25167 7.75003 7.27542 7.75003H12.7243C13.7481 7.75003 14.4383 7.7517 14.9502 7.82222C15.4406 7.88977 15.6441 8.00627 15.7749 8.14605C15.9057 8.28582 16.0084 8.49666 16.0432 8.99048C16.0795 9.50594 16.0352 10.1947 15.9671 11.2162L15.6249 16.3493C15.6034 16.6722 15.5833 16.9717 15.5634 17.25ZM4.57465 18.75H15.4251C15.3974 18.9641 15.3665 19.1599 15.3305 19.3405C15.1941 20.025 15.0038 20.3873 14.7304 20.6431C14.457 20.8989 14.0828 21.0647 13.3908 21.1552C12.6774 21.2485 11.7374 21.25 10.3866 21.25H9.61319C8.26235 21.25 7.32234 21.2485 6.60894 21.1552C5.91694 21.0647 5.54278 20.8989 5.26937 20.6431C4.99595 20.3873 4.80562 20.025 4.66927 19.3405C4.63329 19.1599 4.60232 18.9641 4.57465 18.75Z" fill="#1C274C"/>
</svg>
