<svg width="24" height="24" viewBox="0 0 24 24" fill="none" xmlns="http://www.w3.org/2000/svg">
<path d="M15.7285 3.88384C17.1629 2.44395 19.2609 2.41371 20.4224 3.57968C21.586 4.74786 21.5547 6.8591 20.1194 8.29997L17.6956 10.7332C17.4033 11.0267 17.4042 11.5015 17.6976 11.7939C17.9911 12.0862 18.466 12.0853 18.7583 11.7918L21.1821 9.35857C23.0934 7.43986 23.3334 4.37653 21.4851 2.52108C19.6346 0.663429 16.5781 0.905542 14.6658 2.82524L9.81817 7.6917C7.90688 9.61041 7.66692 12.6738 9.51519 14.5292C9.80751 14.8227 10.2824 14.8236 10.5758 14.5313C10.8693 14.2389 10.8702 13.7641 10.5779 13.4706C9.41425 12.3024 9.44559 10.1912 10.8809 8.7503L15.7285 3.88384Z" fill="#1C274C"/>
<path d="M14.4851 9.47062C14.1928 9.17716 13.7179 9.17624 13.4244 9.46856C13.131 9.76089 13.1301 10.2358 13.4224 10.5292C14.586 11.6974 14.5547 13.8086 13.1194 15.2495L8.27178 20.116C6.83745 21.5559 4.73937 21.5861 3.57791 20.4202C2.41424 19.252 2.44559 17.1407 3.88089 15.6998L6.30473 13.2666C6.59706 12.9731 6.59614 12.4982 6.30268 12.2059C6.00922 11.9136 5.53434 11.9145 5.24202 12.208L2.81818 14.6412C0.906876 16.5599 0.666916 19.6233 2.51519 21.4788C4.36567 23.3364 7.42221 23.0943 9.33449 21.1746L14.1821 16.3081C16.0934 14.3894 16.3334 11.3261 14.4851 9.47062Z" fill="#1C274C"/>
</svg>
