<svg width="24" height="24" viewBox="0 0 24 24" fill="none" xmlns="http://www.w3.org/2000/svg">
<path d="M14.8591 1.58738C15.5684 1.26639 16.3265 1.0833 17.0573 1.45945C17.7943 1.83885 18.0742 2.56486 18.2067 3.32566C18.3362 4.06908 18.3608 5.06667 18.3903 6.28074L18.4079 7.00144C18.4271 7.78971 18.4462 7.95663 18.5095 8.08933C18.5712 8.21881 18.6821 8.33234 19.277 8.82957L19.822 9.28465C20.7349 10.0476 21.4884 10.6767 21.9821 11.2378C22.4937 11.8191 22.8692 12.4867 22.7155 13.2993C22.5638 14.1005 21.9793 14.6023 21.2956 14.9897C20.6284 15.3678 19.6906 15.7332 18.5446 16.1802L18.487 16.2026L17.8688 16.4438C17.1314 16.7314 16.9664 16.8109 16.8464 16.9282C16.7261 17.0459 16.6423 17.2099 16.3366 17.9419L16.0563 18.6137C15.5808 19.7525 15.1924 20.6839 14.7985 21.3432C14.3957 22.0176 13.8805 22.5925 13.0759 22.7241C12.2583 22.8576 11.6012 22.4597 11.0368 21.9311C10.4915 21.4205 9.88512 20.6473 9.15008 19.7104L8.71161 19.1518C8.23252 18.5413 8.12303 18.4268 7.99676 18.3618C7.86803 18.2955 7.70429 18.2713 6.91864 18.2309L6.20184 18.1938C4.99466 18.1318 4.00157 18.0811 3.26434 17.9311C2.50822 17.7773 1.79263 17.4758 1.43524 16.727C1.08202 15.9868 1.28253 15.2339 1.62079 14.5307C1.95326 13.8397 2.51758 12.9986 3.2077 11.9702L3.61493 11.3637C4.0593 10.7015 4.149 10.5422 4.17938 10.3823C4.20884 10.2267 4.18536 10.0572 4.00946 9.29734L3.84832 8.60105C3.57631 7.42626 3.35228 6.4604 3.29266 5.70555C3.23108 4.92571 3.32572 4.16763 3.91082 3.59519C4.49723 3.02181 5.25739 2.94599 6.03387 3.02879C6.78435 3.10887 7.74049 3.35925 8.90204 3.66355L9.59247 3.84422C10.3445 4.04121 10.5095 4.06941 10.6628 4.04441C10.8209 4.01859 10.9805 3.93372 11.653 3.50437L12.2682 3.1118C13.3099 2.44673 14.1621 1.90282 14.8591 1.58738ZM18.4694 18.4692C18.7622 18.1765 19.237 18.1767 19.53 18.4692L21.53 20.4692C21.8229 20.7621 21.8229 21.2369 21.53 21.5298C21.2371 21.8226 20.7623 21.8226 20.4694 21.5298L18.4694 19.5298C18.1769 19.2368 18.1767 18.762 18.4694 18.4692ZM16.3708 2.79344C16.2664 2.73969 16.0631 2.68845 15.4772 2.95359C14.8906 3.21907 14.1295 3.70262 13.0222 4.40965L12.4606 4.76902C12.427 4.79047 12.3929 4.81144 12.36 4.8325C11.8424 5.16393 11.4077 5.4427 10.905 5.52488C10.3974 5.60775 9.90207 5.47725 9.32293 5.32469C9.2863 5.31503 9.24895 5.30517 9.21161 5.29539L8.58368 5.13133C7.34468 4.80677 6.49901 4.5876 5.87469 4.52098C5.26352 4.45581 5.0684 4.56113 4.95965 4.66746C4.84997 4.77484 4.73908 4.97051 4.78778 5.58738C4.83748 6.21678 5.03401 7.07248 5.32391 8.32469L5.4704 8.95945C5.47912 8.99715 5.48815 9.03479 5.49676 9.07176C5.63325 9.65773 5.74949 10.1556 5.65399 10.6606C5.55914 11.1617 5.27076 11.5903 4.92645 12.102C4.90475 12.1343 4.88216 12.1667 4.86004 12.1997L4.48797 12.7544C3.75473 13.847 3.25346 14.5989 2.97332 15.1811C2.69383 15.7621 2.73645 15.9707 2.78875 16.0805C2.83703 16.1817 2.95593 16.3378 3.56317 16.4614C4.17644 16.5862 5.05545 16.6334 6.34344 16.6997L6.99579 16.7329C7.03593 16.735 7.07648 16.7368 7.1159 16.7387C7.71376 16.7686 8.22999 16.7945 8.68329 17.0278C9.1388 17.2623 9.45518 17.6681 9.81903 18.1333C9.84297 18.1639 9.86787 18.195 9.89227 18.2261L10.2897 18.7329C11.0755 19.7344 11.6114 20.4142 12.0622 20.8364C12.5038 21.25 12.7053 21.2646 12.8337 21.2436C12.9747 21.2206 13.181 21.1252 13.5104 20.5737C13.8423 20.0181 14.1907 19.1879 14.696 17.978L14.9528 17.3637C14.9678 17.328 14.9822 17.2924 14.9968 17.2573C15.2338 16.6878 15.4312 16.2132 15.7975 15.855C16.1643 15.4964 16.6433 15.3111 17.2165 15.0884C17.2517 15.0747 17.287 15.0604 17.3229 15.0464L17.9421 14.8052C19.1599 14.3302 19.9949 14.0031 20.5563 13.685C21.1121 13.3701 21.2145 13.1653 21.2419 13.021C21.267 12.8881 21.2554 12.6827 20.8561 12.229C20.448 11.7652 19.7851 11.2096 18.8093 10.394L18.3151 9.98094C18.285 9.95573 18.255 9.93048 18.2253 9.90574C17.7715 9.52768 17.3769 9.19868 17.1559 8.73582C16.9366 8.27605 16.9246 7.75921 16.9108 7.15769C16.9099 7.11822 16.9089 7.0778 16.9079 7.03758L16.8923 6.38133C16.8607 5.08684 16.8372 4.20234 16.7292 3.5825C16.6221 2.96781 16.469 2.84405 16.3708 2.79344Z" fill="#1C274C"/>
</svg>
