<svg width="24" height="24" viewBox="0 0 24 24" fill="none" xmlns="http://www.w3.org/2000/svg">
<path d="M11.2241 6.80666C12.4234 5.97166 13.2598 5.39132 13.9182 5.05359C14.576 4.71619 14.878 4.71708 15.0744 4.78785C15.1946 4.83116 15.3137 4.89495 15.4199 4.97375C15.6067 5.11233 15.7902 5.3901 15.9202 6.12972C15.992 6.53767 16.3808 6.81024 16.7888 6.73851C17.1967 6.66679 17.4693 6.27793 17.3976 5.86997C17.2471 5.01392 16.9707 4.25669 16.3138 3.7692C16.0915 3.60419 15.8427 3.4703 15.5829 3.37667C14.7882 3.0903 14.0043 3.32362 13.2336 3.71894C12.4743 4.10845 11.5549 4.74852 10.4153 5.54199L10.1637 5.71717C9.74579 6.00812 9.60776 6.1011 9.46629 6.16703C9.31351 6.23823 9.15371 6.28875 8.99053 6.31785C8.84055 6.34459 8.67989 6.34726 8.17866 6.34726L8.01889 6.34719C6.89957 6.34644 6.09436 6.3459 5.37924 6.69527C4.71961 7.01753 4.09472 7.64223 3.75773 8.30265C3.39426 9.01497 3.35173 9.75792 3.29088 10.8206L3.28355 10.9483C3.26273 11.309 3.25 11.6656 3.25 11.9998C3.25 12.3341 3.26273 12.6907 3.28355 13.0514L3.29088 13.1791C3.35173 14.2418 3.39426 14.9847 3.75773 15.697C4.09472 16.3575 4.71961 16.9822 5.37924 17.3044C6.09436 17.6538 6.89957 17.6532 8.0189 17.6525L8.17865 17.6524C8.67989 17.6524 8.84055 17.6551 8.99053 17.6818C9.1537 17.7109 9.31351 17.7615 9.46629 17.8327C9.60777 17.8986 9.74578 17.9916 10.1637 18.2825L10.4153 18.4577C11.5549 19.2512 12.4743 19.8912 13.2336 20.2808C14.0043 20.6761 14.7882 20.9094 15.5829 20.623C15.8427 20.5294 16.0915 20.3955 16.3138 20.2305C16.9707 19.743 17.2471 18.9858 17.3976 18.1297C17.4693 17.7218 17.1967 17.3329 16.7888 17.2612C16.3808 17.1894 15.992 17.462 15.9202 17.87C15.7902 18.6096 15.6067 18.8874 15.4199 19.0259C15.3137 19.1047 15.1946 19.1685 15.0744 19.2118C14.878 19.2826 14.576 19.2835 13.9182 18.9461C13.2598 18.6084 12.4234 18.028 11.2241 17.193L10.9719 17.0175C10.6219 16.7737 10.3732 16.6004 10.0999 16.473C9.83021 16.3474 9.546 16.2572 9.25385 16.2051C8.95709 16.1522 8.65648 16.1523 8.23805 16.1524L8.17865 16.1524C6.83037 16.1524 6.40203 16.1347 6.03768 15.9567C5.68038 15.7821 5.28835 15.3965 5.09384 15.0153C4.88997 14.6157 4.85258 14.2041 4.78106 12.965C4.7614 12.6244 4.75 12.2978 4.75 11.9998C4.75 11.7019 4.7614 11.3753 4.78106 11.0347C4.85258 9.79563 4.88997 9.38396 5.09384 8.98442C5.28835 8.60324 5.68038 8.21758 6.03768 8.04303C6.40203 7.86503 6.83037 7.84726 8.17865 7.84726L8.23806 7.84727C8.65648 7.84739 8.95709 7.84747 9.25385 7.79455C9.546 7.74246 9.83021 7.65232 10.0999 7.52664C10.3732 7.39927 10.6219 7.22601 10.9719 6.98222L11.2241 6.80666Z" fill="#1C274C"/>
<path d="M14.5303 8.46951C14.2374 8.17662 13.7625 8.17662 13.4696 8.46951C13.1768 8.76241 13.1768 9.23728 13.4696 9.53017L15.9393 11.9999L13.4697 14.4695C13.1768 14.7624 13.1768 15.2373 13.4697 15.5302C13.7626 15.8231 14.2374 15.8231 14.5303 15.5302L17 13.0605L19.4696 15.5302C19.7625 15.823 20.2374 15.823 20.5303 15.5302C20.8232 15.2373 20.8232 14.7624 20.5303 14.4695L18.0606 11.9999L20.5303 9.5302C20.8232 9.23731 20.8232 8.76243 20.5303 8.46954C20.2374 8.17665 19.7625 8.17665 19.4696 8.46954L17 10.9392L14.5303 8.46951Z" fill="#1C274C"/>
</svg>
