<svg width="24" height="24" viewBox="0 0 24 24" fill="none" xmlns="http://www.w3.org/2000/svg">
<path d="M1.28601 18.8878V5.87641L3.43573 7.59755C4.52087 8.46498 5.87001 8.93812 7.25859 8.93812H12.0003L14.2152 4.50841C14.4701 4.00054 14.861 3.57344 15.3444 3.27469C15.8278 2.97594 16.3846 2.81729 16.9529 2.81641H18.122V6.64269L22.7146 8.17355V9.70441C22.7146 11.3947 21.3432 12.7644 19.6529 12.7644H16.5946V18.8878C16.603 19.1947 16.5498 19.5001 16.4381 19.786C16.3265 20.0719 16.1587 20.3326 15.9447 20.5526C15.7306 20.7726 15.4746 20.9474 15.1919 21.0668C14.9091 21.1862 14.6052 21.2477 14.2983 21.2477C13.9914 21.2477 13.6875 21.1862 13.4047 21.0668C13.122 20.9474 12.866 20.7726 12.6519 20.5526C12.4379 20.3326 12.2701 20.0719 12.1585 19.786C12.0468 19.5001 11.9936 19.1947 12.002 18.8878V18.1216C12.002 17.2764 11.3163 16.5924 10.4712 16.5924H7.40773C6.56258 16.5924 5.87858 17.2781 5.87858 18.1216V18.8878C5.88697 19.1947 5.83378 19.5001 5.72215 19.786C5.61052 20.0719 5.44272 20.3326 5.22866 20.5526C5.0146 20.7726 4.75862 20.9474 4.47585 21.0668C4.19308 21.1862 3.88925 21.2477 3.5823 21.2477C3.27535 21.2477 2.97152 21.1862 2.68875 21.0668C2.40597 20.9474 2.15 20.7726 1.93594 20.5526C1.72188 20.3326 1.55408 20.0719 1.44245 19.786C1.33082 19.5001 1.27763 19.1947 1.28601 18.8878Z" stroke="#5C5C5C" stroke-width="1.5" stroke-linecap="round" stroke-linejoin="round"/>
<path d="M12.0215 8.7373C12.3215 9.96645 13.7358 12.5002 16.9843 12.8087" stroke="#5C5C5C" stroke-width="1.5" stroke-linecap="round" stroke-linejoin="round"/>
</svg>
