<svg width="24" height="24" viewBox="0 0 24 24" fill="none" xmlns="http://www.w3.org/2000/svg">
<path fill-rule="evenodd" clip-rule="evenodd" d="M14.3943 3.06526C11.9589 2.4127 9.4915 2.79487 7.45561 3.94346C7.09485 4.14699 6.6374 4.01953 6.43387 3.65877C6.23034 3.29801 6.3578 2.84057 6.71856 2.63703C9.08256 1.30332 11.9528 0.858136 14.7825 1.61637C20.5173 3.153 23.9206 9.04762 22.3839 14.7824C20.8473 20.5171 14.9527 23.9204 9.21792 22.3838C3.48316 20.8472 0.0798993 14.9525 1.61652 9.21777C1.92079 8.08225 2.39655 7.03682 3.00897 6.10279C3.58298 5.22733 4.74075 5.15953 5.47401 5.75301L12.4721 11.4171C12.794 11.6777 12.8438 12.15 12.5832 12.4719C12.3226 12.7939 11.8503 12.8436 11.5284 12.583L4.53031 6.91895C4.47447 6.87376 4.41163 6.86018 4.36175 6.86621C4.31632 6.8717 4.28556 6.89143 4.26338 6.92526C3.73738 7.72749 3.32785 8.62657 3.06541 9.606C1.7432 14.5406 4.67159 19.6127 9.60615 20.9349C14.5407 22.2571 19.6128 19.3287 20.935 14.3942C22.2573 9.45959 19.3289 4.38747 14.3943 3.06526Z" fill="#1C274C"/>
</svg>
