<svg width="24" height="24" viewBox="0 0 24 24" fill="none" xmlns="http://www.w3.org/2000/svg">
<path d="M19 4.9502C19.6763 4.9502 20.3245 5.21905 20.8027 5.69727C21.281 6.17548 21.5498 6.8237 21.5498 7.5V8.29492C21.5503 8.63207 21.4756 8.96541 21.3301 9.26953C21.1939 9.55409 20.9966 9.80353 20.7568 10.0078C21.1474 10.2831 21.4688 10.6459 21.6934 11.0684C21.9276 11.5092 22.0498 12.0008 22.0498 12.5V14C22.0498 14.1459 21.9918 14.2855 21.8887 14.3887C21.7855 14.4918 21.6459 14.5498 21.5 14.5498C21.3541 14.5498 21.2145 14.4918 21.1113 14.3887C21.0082 14.2855 20.9502 14.1459 20.9502 14V12.5C20.9502 11.9828 20.7446 11.4868 20.3789 11.1211C20.0132 10.7554 19.5172 10.5498 19 10.5498C18.8541 10.5498 18.7145 10.4918 18.6113 10.3887C18.5082 10.2855 18.4502 10.1459 18.4502 10C18.4502 9.85413 18.5082 9.71447 18.6113 9.61133C18.7145 9.50818 18.8541 9.4502 19 9.4502H19.2949C19.6012 9.4502 19.8947 9.32793 20.1113 9.11133C20.3279 8.89472 20.4502 8.60125 20.4502 8.29492V7.5C20.4502 7.11544 20.2973 6.74654 20.0254 6.47461C19.7535 6.20268 19.3846 6.0498 19 6.0498C18.8541 6.0498 18.7145 5.99182 18.6113 5.88867C18.5082 5.78553 18.4502 5.64587 18.4502 5.5C18.4502 5.35413 18.5082 5.21447 18.6113 5.11133C18.7145 5.00818 18.8541 4.9502 19 4.9502Z" fill="#5C5C5C" stroke="#5C5C5C" stroke-width="0.1"/>
<path d="M17 7.4502C17.1459 7.4502 17.2855 7.50818 17.3887 7.61133C17.4918 7.71447 17.5498 7.85413 17.5498 8C17.5498 8.14587 17.4918 8.28553 17.3887 8.38867C17.2855 8.49182 17.1459 8.5498 17 8.5498C16.6154 8.5498 16.2465 8.70268 15.9746 8.97461C15.7027 9.24654 15.5498 9.61544 15.5498 10V10.9092C15.5499 11.2937 15.7027 11.6627 15.9746 11.9346C16.2465 12.2064 16.6155 12.3594 17 12.3594H18.5C18.9109 12.3594 19.3051 12.5221 19.5957 12.8125C19.8864 13.1032 20.0498 13.4981 20.0498 13.9092V14C20.0498 14.1459 19.9918 14.2855 19.8887 14.3887C19.7855 14.4918 19.6459 14.5498 19.5 14.5498C19.3541 14.5498 19.2145 14.4918 19.1113 14.3887C19.0082 14.2855 18.9502 14.1459 18.9502 14V13.9092C18.9502 13.7899 18.9027 13.6752 18.8184 13.5908C18.734 13.5064 18.6193 13.459 18.5 13.459H17C16.3237 13.459 15.6755 13.1901 15.1973 12.7119C14.7191 12.2337 14.4502 11.5854 14.4502 10.9092V10C14.4502 9.3237 14.719 8.67548 15.1973 8.19727C15.6755 7.71905 16.3237 7.4502 17 7.4502Z" fill="#5C5C5C" stroke="#5C5C5C" stroke-width="0.1"/>
<path d="M16.5 14.9502C16.9111 14.9502 17.305 15.1136 17.5957 15.4043C17.8864 15.695 18.0498 16.0889 18.0498 16.5V17.5C18.0498 17.9111 17.8864 18.305 17.5957 18.5957C17.305 18.8864 16.9111 19.0498 16.5 19.0498H3.5C3.08891 19.0498 2.69498 18.8864 2.4043 18.5957C2.11362 18.305 1.9502 17.9111 1.9502 17.5V16.5C1.9502 16.0889 2.11362 15.695 2.4043 15.4043C2.69498 15.1136 3.08891 14.9502 3.5 14.9502H16.5ZM3.5 16.0498C3.38065 16.0498 3.26603 16.0972 3.18164 16.1816C3.09725 16.266 3.0498 16.3807 3.0498 16.5V17.5C3.0498 17.6193 3.09725 17.734 3.18164 17.8184C3.26603 17.9028 3.38065 17.9502 3.5 17.9502H16.5C16.6193 17.9502 16.734 17.9028 16.8184 17.8184C16.9028 17.734 16.9502 17.6193 16.9502 17.5V16.5C16.9502 16.3807 16.9028 16.266 16.8184 16.1816C16.734 16.0972 16.6193 16.0498 16.5 16.0498H3.5Z" fill="#5C5C5C" stroke="#5C5C5C" stroke-width="0.1"/>
<path d="M19.5 15.4502C19.6459 15.4502 19.7855 15.5082 19.8887 15.6113C19.9918 15.7145 20.0498 15.8541 20.0498 16V18C20.0498 18.1459 19.9918 18.2855 19.8887 18.3887C19.7855 18.4918 19.6459 18.5498 19.5 18.5498C19.3541 18.5498 19.2145 18.4918 19.1113 18.3887C19.0082 18.2855 18.9502 18.1459 18.9502 18V16C18.9502 15.8541 19.0082 15.7145 19.1113 15.6113C19.2145 15.5082 19.3541 15.4502 19.5 15.4502ZM21.5 15.4502C21.6459 15.4502 21.7855 15.5082 21.8887 15.6113C21.9918 15.7145 22.0498 15.8541 22.0498 16V18C22.0498 18.1459 21.9918 18.2855 21.8887 18.3887C21.7855 18.4918 21.6459 18.5498 21.5 18.5498C21.3541 18.5498 21.2145 18.4918 21.1113 18.3887C21.0082 18.2855 20.9502 18.1459 20.9502 18V16C20.9502 15.8541 21.0082 15.7145 21.1113 15.6113C21.2145 15.5082 21.3541 15.4502 21.5 15.4502Z" fill="#5C5C5C" stroke="#5C5C5C" stroke-width="0.1"/>
</svg>
