<svg width="24" height="24" viewBox="0 0 24 24" fill="none" xmlns="http://www.w3.org/2000/svg">
<path fill-rule="evenodd" clip-rule="evenodd" d="M10.1006 2.3961C10.5773 1.77363 11.1664 1.25 11.9995 1.25C12.8326 1.25 13.4218 1.77363 13.8985 2.3961C14.3669 3.00773 14.8635 3.89876 15.4706 4.98776L15.8292 5.63106C16.2217 6.33523 16.3221 6.48482 16.4481 6.58044C16.5693 6.67247 16.7257 6.7238 17.4892 6.89654L18.1892 7.05492C19.3648 7.32088 20.3333 7.53999 21.0387 7.81796C21.7709 8.10651 22.4116 8.5318 22.6583 9.32502C22.9024 10.1101 22.628 10.8323 22.204 11.5059C21.792 12.1604 21.134 12.9298 20.3301 13.8698L19.8556 14.4247C19.3386 15.0292 19.2306 15.1772 19.1798 15.3404C19.1281 15.5069 19.1329 15.6992 19.211 16.5052L19.2826 17.2433C19.4043 18.4994 19.5036 19.5236 19.4688 20.3037C19.4335 21.0977 19.2531 21.8601 18.5979 22.3576C17.9303 22.8643 17.1537 22.8072 16.4039 22.5924C15.6769 22.3841 14.7706 21.9667 13.67 21.46L13.0144 21.1581C12.297 20.8278 12.1435 20.7748 11.9995 20.7748C11.8556 20.7748 11.702 20.8278 10.9847 21.1581L10.329 21.46C9.22849 21.9667 8.32216 22.3841 7.59516 22.5924C6.84538 22.8072 6.06871 22.8643 5.40119 22.3576C4.74591 21.8601 4.56558 21.0977 4.53021 20.3037C4.49546 19.5236 4.59474 18.4993 4.71648 17.2433L4.78801 16.5052C4.86611 15.6992 4.87098 15.5069 4.81922 15.3404C4.76845 15.1772 4.66045 15.0292 4.14345 14.4247L3.66896 13.8698C2.86511 12.9299 2.20704 12.1604 1.79504 11.5059C1.37101 10.8323 1.09665 10.1101 1.34078 9.32502C1.58745 8.5318 2.22818 8.10651 2.96037 7.81796C3.66573 7.53999 4.63425 7.32088 5.80989 7.05492L5.87355 7.04052L6.5099 6.89654C7.27334 6.72381 7.42974 6.67247 7.55099 6.58044C7.67694 6.48482 7.77736 6.33523 8.1699 5.63106L8.52851 4.98775C9.13552 3.89876 9.63219 3.00773 10.1006 2.3961Z" fill="#CC2222"/>
</svg>
